<svg width="1920" height="1080" viewBox="0 0 1920 1080" xmlns="http://www.w3.org/2000/svg"><rect width="1920" height="1080" fill="#818cf8"/><path d="M 0,1080 C 0,1080 0,360 0,360 C 104.02061855670104,338.08357879234165 208.04123711340208,316.16715758468337 303,289 C 397.9587628865979,261.83284241531663 483.85567010309273,229.41494845360825 562,273 C 640.1443298969073,316.58505154639175 710.5360824742268,436.17304860088365 801,448 C 891.4639175257732,459.82695139911635 1002,363.8928571428571 1111,352 C 1220,340.1071428571429 1327.463917525773,412.2555228276878 1407,437 C 1486.536082474227,461.7444771723122 1538.1443298969075,439.08505154639175 1642,446 C 1745.8556701030925,452.91494845360825 1901.958762886598,489.4042709867452 1957,480 C 2012.041237113402,470.5957290132548 1966.020618556701,415.29786450662743 1920,360 C 1920,360 1920,1080 1920,1080 Z" fill="#131f90" opacity="0.19999999999999998"/><path d="M 0,1080 C 0,1080 0,720 0,720 C 106.05283505154642,760.970176730486 212.10567010309285,801.940353460972 310,774 C 407.89432989690715,746.059646539028 497.6301546391752,649.2087628865978 579,631 C 660.3698453608248,612.7912371134022 733.3737113402062,673.2245949926362 832,698 C 930.6262886597938,722.7754050073638 1054.8750000000002,711.8928571428572 1144,737 C 1233.1249999999998,762.1071428571428 1287.1262886597935,823.2039764359353 1372,790 C 1456.8737113402065,756.7960235640647 1572.619845360825,629.2912371134021 1686,621 C 1799.380154639175,612.7087628865979 1910.3943298969073,723.6310751104565 1949,760 C 1987.6056701030927,796.3689248895435 1953.8028350515465,758.1844624447717 1920,720 C 1920,720 1920,1080 1920,1080 Z" fill="#131f90" opacity="0.39999999999999997"/></svg>