<svg width="1920" height="1080" viewBox="0 0 1920 1080" xmlns="http://www.w3.org/2000/svg"><path d="M 0,1080 C 0,1080 0,360 0,360 C 89.85935198821795,437.87131811487484 179.7187039764359,515.7426362297497 256,488 C 332.2812960235641,460.2573637702504 394.9845360824743,326.9007731958763 497,325 C 599.0154639175257,323.0992268041237 740.3431516936673,452.6542709867452 851,449 C 961.6568483063327,445.3457290132548 1041.642857142857,308.4821428571429 1133,295 C 1224.357142857143,281.5178571428571 1327.0854197349042,391.41715758468337 1409,410 C 1490.9145802650958,428.58284241531663 1552.0154639175255,355.8492268041237 1640,338 C 1727.9845360824745,320.1507731958763 1842.8527245949927,357.1859351988218 1894,370 C 1945.1472754050073,382.8140648011782 1932.5736377025037,371.40703240058906 1920,360 C 1920,360 1920,1080 1920,1080 Z" fill="#818cf8" opacity="0.19999999999999998"/><path d="M 0,1080 C 0,1080 0,720 0,720 C 84.66531664212079,710.2625184094256 169.33063328424157,700.5250368188512 256,743 C 342.66936671575843,785.4749631811488 431.34278350515456,880.1623711340205 538,850 C 644.6572164948454,819.8376288659795 769.2982326951399,664.8254786450664 864,614 C 958.7017673048601,563.1745213549336 1023.4642857142858,616.5357142857143 1115,672 C 1206.5357142857142,727.4642857142857 1324.844624447717,785.0316642120766 1420,797 C 1515.155375552283,808.9683357879234 1587.1572164948454,775.3376288659794 1684,764 C 1780.8427835051546,752.6623711340206 1902.5265095729014,763.6178203240058 1946,760 C 1989.4734904270986,756.3821796759942 1954.7367452135493,738.1910898379971 1920,720 C 1920,720 1920,1080 1920,1080 Z" fill="#818cf8" opacity="0.39999999999999997"/></svg>